<svg width="120" height="65" viewBox="0 0 120 65" fill="none" xmlns="http://www.w3.org/2000/svg">
<path d="M0 13.9432C0 9.97745 1.31592 6.66847 3.94776 4.01624C6.60443 1.33875 9.94389 0 13.9661 0C18.1125 0 21.5265 1.19982 24.208 3.59946L21.0796 8.56292C20.3099 7.85566 19.3167 7.26207 18.1001 6.78214C16.8835 6.30221 15.7166 6.06225 14.5993 6.06225C11.9674 6.06225 9.99355 6.79477 8.67763 8.25981C7.38654 9.69959 6.74099 11.5183 6.74099 13.7158C6.74099 16.2165 7.47344 18.212 8.93833 19.7023C10.4281 21.1926 12.2405 21.9378 14.3758 21.9378C16.3125 21.9378 18.1125 21.281 19.7761 19.9675V17.8836H16.0145V12.2382H25.5487V27.5453H20.1112V26.7875L20.1485 25.6509H20.074C19.2795 26.3581 18.2367 26.9265 16.9456 27.3559C15.6793 27.7853 14.3882 28 13.0723 28C9.49698 28 6.41822 26.7244 3.83603 24.1732C1.27868 21.622 0 18.212 0 13.9432Z" fill="white"/>
<path d="M30.2204 27.5453V0.454669H39.4939C41.8526 0.454669 43.5782 0.669374 44.6707 1.09878C46.2101 1.70501 47.4143 2.69012 48.2833 4.05413C49.1523 5.39287 49.5868 7.03473 49.5868 8.9797C49.5868 10.4953 49.2392 11.9477 48.544 13.3369C47.8488 14.7009 46.868 15.7113 45.6018 16.3681V16.4438C45.8501 16.7722 46.1853 17.3153 46.6073 18.0731L51.7841 27.5453H44.5217L39.7919 18.4141H36.7379V27.5453H30.2204ZM36.7379 12.7307H39.5684C40.636 12.7307 41.4678 12.4402 42.0637 11.8593C42.6596 11.2783 42.9575 10.4574 42.9575 9.39648C42.9575 7.90618 42.4361 6.94632 41.3933 6.51692C40.8223 6.26432 40.0029 6.13803 38.9353 6.13803H36.7379V12.7307Z" fill="white"/>
<path d="M54.7339 27.5453V0.454669H71.4188V6.13803H61.2514V11.0636H69.3704V16.747H61.2514V21.862H71.9402V27.5453H54.7339Z" fill="white"/>
<path d="M76.1196 27.5453V0.454669H92.8044V6.13803H82.6371V11.0636H90.7561V16.747H82.6371V21.862H93.3258V27.5453H76.1196Z" fill="white"/>
<path d="M97.5052 27.5453V0.454669H104.097L111.471 13.1096C111.769 13.6401 112.104 14.2968 112.477 15.0798C112.849 15.8376 113.147 16.4691 113.371 16.9743L113.706 17.7321H113.78C113.582 15.7871 113.482 14.2463 113.482 13.1096V0.454669H120V27.5453H113.445L106.034 14.9283C105.736 14.3978 105.401 13.7537 105.028 12.9959C104.656 12.2129 104.358 11.5688 104.134 11.0636L103.799 10.3058H103.725C103.923 12.2508 104.023 13.7916 104.023 14.9283V27.5453H97.5052Z" fill="white"/>
<path d="M14 51.4452C14 47.5968 15.31 44.3938 17.9301 41.8363C20.575 39.2788 23.9437 38 28.0359 38C29.9074 38 31.7289 38.3166 33.5006 38.9499C35.2722 39.5589 36.7943 40.4723 38.0669 41.6901L35.0352 46.5129C34.1369 45.7334 33.0764 45.1001 31.8537 44.613C30.6559 44.1015 29.4832 43.8457 28.3353 43.8457C25.8401 43.8457 23.9561 44.5765 22.6835 46.0379C21.411 47.475 20.7747 49.2287 20.7747 51.2991C20.7747 53.4181 21.4234 55.2571 22.721 56.816C24.0435 58.3748 25.9149 59.1543 28.3353 59.1543C30.8805 59.1543 33.251 58.0825 35.4469 55.9391L38.8155 60.6157C35.921 63.5386 32.3278 65 28.0359 65C23.7939 65 20.3879 63.7334 17.8178 61.2003C15.2726 58.6428 14 55.3911 14 51.4452Z" fill="#11B354"/>
<path d="M39.2222 64.5616L48.3175 38.4384H55.2045L64.2997 64.5616H57.5625L55.9156 59.0812H47.5689L45.9595 64.5616H39.2222ZM49.1035 53.9662H54.381L52.8839 48.8877L51.7984 44.3938H51.7236C51.3243 46.2936 50.9625 47.7916 50.6381 48.8877L49.1035 53.9662Z" fill="#11B354"/>
<path d="M66.997 64.5616V38.4384H76.3168C78.6873 38.4384 80.4215 38.6455 81.5194 39.0595C83.0665 39.6441 84.2767 40.594 85.1501 41.9093C86.0234 43.2003 86.4601 44.7835 86.4601 46.659C86.4601 48.1204 86.1107 49.521 85.4121 50.8606C84.7134 52.1759 83.7278 53.1502 82.4552 53.7835V53.8566C82.7047 54.1732 83.0416 54.6969 83.4658 55.4276L88.6684 64.5616H81.3697L76.6162 55.7564H73.5471V64.5616H66.997ZM73.5471 50.276H76.3917C77.4646 50.276 78.3005 49.9959 78.8994 49.4357C79.4983 48.8755 79.7977 48.0839 79.7977 47.0609C79.7977 45.6238 79.2737 44.6982 78.2257 44.2842C77.6518 44.0406 76.8283 43.9188 75.7554 43.9188H73.5471V50.276Z" fill="#11B354"/>
<path d="M89.7989 61.2733L93.2424 56.4141C94.0907 57.1448 95.1013 57.7781 96.2741 58.3139C97.4469 58.8498 98.5822 59.1177 99.6802 59.1177C100.554 59.1177 101.227 58.9472 101.701 58.6062C102.2 58.2652 102.45 57.8268 102.45 57.2909C102.45 56.7307 102.15 56.2192 101.552 55.7564C100.978 55.2693 100.254 54.8674 99.3807 54.5507C98.5074 54.2341 97.5592 53.8322 96.5361 53.3451C95.5131 52.8336 94.5648 52.2977 93.6915 51.7375C92.8182 51.1773 92.0821 50.41 91.4832 49.4357C90.9093 48.4371 90.6223 47.2923 90.6223 46.0014C90.6223 43.6143 91.5206 41.6901 93.3172 40.2287C95.1388 38.7429 97.4718 38 100.316 38C103.635 38 106.43 38.9865 108.701 40.9594L105.931 46.184C105.157 45.5264 104.234 44.9783 103.161 44.5399C102.088 44.1015 101.04 43.8823 100.017 43.8823C99.0688 43.8823 98.3577 44.0528 97.8836 44.3938C97.4095 44.7348 97.1724 45.1854 97.1724 45.7456C97.1724 46.3058 97.4594 46.8173 98.0333 47.2801C98.6321 47.7429 99.3682 48.1326 100.242 48.4493C101.115 48.7415 102.063 49.1313 103.086 49.6184C104.109 50.0812 105.057 50.5927 105.931 51.1529C106.804 51.6888 107.528 52.456 108.102 53.4547C108.701 54.429 109 55.5616 109 56.8525C109 59.1664 108.152 61.1028 106.455 62.6617C104.783 64.2206 102.462 65 99.493 65C97.6964 65 95.9373 64.6834 94.2155 64.0501C92.5187 63.4168 91.0465 62.4912 89.7989 61.2733Z" fill="#11B354"/>
</svg>
