<svg width="320" height="65" viewBox="0 0 320 65" fill="none" xmlns="http://www.w3.org/2000/svg">
<path d="M18.1819 29.5455H0.45459V0H18.1819V4.01065H4.46607V12.6623H14.3897V16.673H4.46607V25.5348H18.1819V29.5455Z" fill="white"/>
<path d="M66.6365 29.5455H48.9092V0H53.0181V25.5348H62.5275V21.9444H66.6365V29.5455V29.5455Z" fill="white"/>
<path d="M113.909 29.5455H96.1816V0H113.909V4.01065H100.193V12.6623H110.117V16.673H100.193V25.5348H113.909V29.5455Z" fill="white"/>
<path d="M170.636 25.5348V29.5455H163.298V6.54129L158.059 16.8831H153.863L148.623 6.54129V29.5455H144.636V0H149.458L155.961 12.6623L162.454 0H167.276V25.5348H170.636Z" fill="white"/>
<path d="M219.091 29.5455H201.364V0H219.091V4.01065H205.375V12.6623H215.299V16.673H205.375V25.5348H219.091V29.5455Z" fill="white"/>
<path d="M268.727 0V29.5455H264.625L253.833 8.86181V29.5455H249.73V4.01065H246.273V0H253.823L264.625 20.6836V0H268.727Z" fill="white"/>
<path d="M299.455 0H318.354V4.01065H299.455V0ZM310.927 29.5455H306.891V16.2527H299.464V12.2421H318.364V16.2527H310.936V29.5455H310.927Z" fill="white"/>
<path d="M249.668 47.2727H254.146L260.455 63.8182H256.755L255.322 59.7575H248.966L247.533 63.8182H243.909L249.668 47.2727ZM254.193 57.0415L251.983 50.5319L249.848 57.0415H254.193Z" fill="white"/>
<path d="M279.354 58.0818C279.354 59.0661 279.163 59.9762 278.782 60.8026C278.401 61.6291 277.906 62.3534 277.278 62.9849C276.639 63.6071 275.887 64.0992 275.02 64.4614C274.154 64.8235 273.23 65 272.258 65C271.249 65 270.315 64.8235 269.468 64.4614C268.62 64.0992 267.877 63.6071 267.229 62.9849C266.591 62.3627 266.086 61.6384 265.725 60.8026C265.363 59.9762 265.182 59.0661 265.182 58.0818V47.2727H268.391V58.0725C268.391 58.6018 268.496 59.0847 268.706 59.5211C268.915 59.9669 269.201 60.3569 269.553 60.7005C269.877 61.0441 270.268 61.3134 270.744 61.4991C271.211 61.6848 271.715 61.7777 272.258 61.7777C272.782 61.7777 273.268 61.6848 273.735 61.4991C274.201 61.3134 274.601 61.0441 274.963 60.7005C275.297 60.3569 275.573 59.9576 275.773 59.5211C275.973 59.0754 276.078 58.5925 276.078 58.0725V47.2727H279.363L279.354 58.0818Z" fill="white"/>
<path d="M297.091 47.2727V50.1506H292.277V63.8182H288.949V50.1506H284.091V47.2727H288.949H292.277H297.091V47.2727Z" fill="white"/>
<path d="M310.645 47.2727C311.876 47.2727 313.033 47.5026 314.117 47.9715C315.201 48.4404 316.138 49.0657 316.946 49.8748C317.755 50.6839 318.388 51.6218 318.848 52.6975C319.307 53.7825 319.546 54.9318 319.546 56.1731C319.546 57.396 319.316 58.5361 318.848 59.5935C318.388 60.6601 317.755 61.5888 316.946 62.3979C316.138 63.207 315.201 63.8323 314.117 64.3012C313.033 64.7701 311.876 65 310.645 65C309.424 65 308.285 64.7701 307.219 64.3012C306.154 63.8323 305.217 63.207 304.418 62.3979C303.619 61.5888 302.976 60.6601 302.516 59.5935C302.057 58.5269 301.818 57.3868 301.818 56.1731C301.818 54.941 302.048 53.7825 302.516 52.6975C302.976 51.6218 303.609 50.6747 304.418 49.8748C305.226 49.0749 306.154 48.4404 307.219 47.9715C308.285 47.5026 309.433 47.2727 310.645 47.2727ZM310.645 61.7727C311.435 61.7727 312.179 61.6347 312.868 61.3497C313.557 61.0647 314.154 60.6693 314.668 60.1636C315.183 59.6579 315.587 59.0694 315.881 58.389C316.175 57.7086 316.331 56.9639 316.331 56.1731C316.331 55.3732 316.184 54.6376 315.881 53.948C315.578 53.2584 315.174 52.6608 314.668 52.1459C314.154 51.631 313.557 51.2264 312.868 50.9322C312.179 50.6287 311.435 50.4816 310.645 50.4816C309.855 50.4816 309.111 50.6287 308.432 50.9322C307.752 51.2356 307.164 51.6402 306.659 52.1459C306.154 52.6608 305.759 53.2584 305.465 53.948C305.171 54.6376 305.024 55.3824 305.024 56.1731C305.024 56.9731 305.171 57.7086 305.465 58.389C305.759 59.0694 306.154 59.6671 306.659 60.1636C307.164 60.6693 307.752 61.0647 308.432 61.3497C309.121 61.6347 309.855 61.7727 310.645 61.7727Z" fill="white"/>
<path d="M238 55.5455H0.45459V60.2727H238V55.5455Z" fill="white"/>
</svg>
